<?xml version="1.0" encoding="UTF-8" standalone="no"?>
<svg
   xmlns:dc="http://purl.org/dc/elements/1.1/"
   xmlns:cc="http://creativecommons.org/ns#"
   xmlns:rdf="http://www.w3.org/1999/02/22-rdf-syntax-ns#"
   xmlns:svg="http://www.w3.org/2000/svg"
   xmlns="http://www.w3.org/2000/svg"
   version="1.1"
   id="svg2"
   viewBox="0 0 2834.6457 708.66143"
   height="200mm"
   width="800mm">
  <defs
     id="defs4" />
  <metadata
     id="metadata7">
    <rdf:RDF>
      <cc:Work
         rdf:about="">
        <dc:format>image/svg+xml</dc:format>
        <dc:type
           rdf:resource="http://purl.org/dc/dcmitype/StillImage" />
        <dc:title></dc:title>
      </cc:Work>
    </rdf:RDF>
  </metadata>
  <g
     transform="translate(0,-343.70075)"
     id="layer1">
    <path
       id="rect4138"
       d="m 623.436,375.11033 -35.4336,0 0,10.62891 -106.2988,0 0,-10.62891 -106.3008,0 0,10.62891 -106.2988,0 0,-10.62891 -106.2989,0 0,10.62891 -106.2988,0 0,-10.62891 -35.4336,0 0,602.36133 35.4336,0 0,-10.6289 106.2988,0 0,10.6289 106.2989,0 0,-10.6289 106.2988,0 0,10.6289 106.3008,0 0,-10.6289 106.2988,0 0,10.6289 35.4336,0 0,-106.29883 -10.6309,0 0,-106.29882 10.6309,0 0,-177.16602 -10.6309,0 0,-106.29883 10.6309,0 0,-106.29883 z"
       style="fill:none;fill-rule:evenodd;stroke:#000000;stroke-width:0.70866144;stroke-linecap:butt;stroke-linejoin:miter;stroke-miterlimit:4;stroke-dasharray:none;stroke-opacity:1" />
    <path
       id="rect4142"
       d="m 790.63606,410.54189 -10.6309,0 0,-35.43164 -44.291,0 0,-10.63086 -53.1504,0 0,10.63086 -44.291,0 0,106.29883 -10.6289,0 0,106.29883 10.6289,0 0,177.16602 -10.6289,0 0,106.29882 10.6289,0 0,106.29883 44.291,0 0,10.63086 53.1504,0 0,-10.63086 44.291,0 0,-35.43359 10.6309,0 0,-53.14844 -10.6309,0 0,-186.02344 10.6309,0 0,-53.15039 -10.6309,0 0,-186.02344 10.6309,0 z m -37.9766,372.52803 0,130.78125 c 0,5.889 -4.7419,10.63086 -10.6308,10.63086 l -74.4102,0 c -5.889,0 -10.6289,-4.74186 -10.6289,-10.63086 l 0,-132.20899 23.6953,-23.69531 47.1289,0 -0.1386,0.13867 z m -87.8125,-315.81836 0,26.22071 c 0,0.58889 -0.4736,1.0625 -1.0625,1.0625 l -12.0468,0 c -0.5889,0 -1.0625,-0.47361 -1.0625,-1.0625 l 0,-26.22071 c 0,-0.58889 0.4736,-1.0625 1.0625,-1.0625 l 12.0468,0 c 0.5889,0 1.0625,0.47361 1.0625,1.0625 z"
       style="fill:none;fill-rule:evenodd;stroke:#000000;stroke-width:0.70866144;stroke-linecap:butt;stroke-linejoin:miter;stroke-miterlimit:4;stroke-dasharray:none;stroke-opacity:1" />
    <path
       id="rect4149"
       d="m 1810.4441,977.47311 0,-35.4336 10.6289,0 0,-53.1504 -10.6289,0 0,-132.873 10.6289,0 0,-53.1504 -10.6289,0 0,-124.0157 10.6289,0 0,-53.1484 -10.6289,0 0,-44.2851 c -0.1841,-27.9188 -18.3291,-40.6839 -23.125,-43.625 l -118.6074,-62.68169 0,35.43359 -10.6309,0 0,106.2988 10.6309,0 0,106.2989 -10.6309,0 0,106.2988 10.6309,0 0,106.3008 -10.6309,0 0,106.2988 10.6309,0 0,35.4336 44.291,0 0,-10.6309 53.1504,0 0,10.6309 44.291,0 z m -35.4336,-230.3164 a 17.716534,17.716532 0 0 1 -17.7168,-17.7168 17.716534,17.716532 0 0 1 17.7168,-17.7149 17.716534,17.716532 0 0 1 17.7168,17.7149 17.716534,17.716532 0 0 1 -17.7168,17.7168 z"
       style="fill:none;stroke:#000000;stroke-width:0.70866144;stroke-linejoin:bevel;stroke-miterlimit:4;stroke-dasharray:none;stroke-opacity:1" />
    <path
       id="path4159"
       d="m 1502.2763,392.83157 0,35.4336 -10.6309,0 0,106.29875 10.6309,0 0,106.3008 -10.6309,0 0,106.2988 10.6309,0 0,106.2989 -10.6309,0 0,106.2988 10.6309,0 0,35.4337 118.6074,-62.6818 c 4.7959,-2.9411 22.9409,-15.7062 23.125,-43.625 l 0,-44.2851 10.6289,0 0,-53.1483 -10.6289,0 0,-124.0158 10.6289,0 0,-53.1504 -10.6289,0 0,-132.873 10.6289,0 0,-53.15035 -10.6289,0 0,-35.4336 -44.291,0 0,10.6309 -53.1504,0 0,-10.6309 -44.291,0 z"
       style="fill:none;stroke:#000000;stroke-width:0.70866144;stroke-linejoin:bevel;stroke-miterlimit:4;stroke-dasharray:none;stroke-opacity:1" />
    <path
       id="path4147"
       d="m 1484.4575,379.65721 -35.4317,0 0,10.6289 -53.1504,0 0,-10.6289 -132.873,0 0,10.6289 -53.1504,0 0,-10.6289 -124.0156,0 0,10.6289 -53.1504,0 0,-10.6289 -228.543,0 -0.709,0 -9.9199,0 0,602.36133 9.9199,0 0.709,0 228.543,0 0,-10.62891 53.1504,0 0,10.62891 124.0156,0 0,-10.62891 53.1504,0 0,10.62891 132.873,0 0,-10.62891 53.1504,0 0,10.62891 35.4317,0 0,-35.4336 -10.6289,0 0,-53.14843 10.6289,0 0,-186.02344 -10.6289,0 0,-53.15039 10.6289,0 0,-186.02344 -10.6289,0 0,-53.15039 10.6289,0 0,-35.43164 z m -35.8438,210.87891 a 3.897634,3.897634 0 0 1 -3.8965,3.89648 3.897634,3.897634 0 0 1 -3.8984,-3.89648 3.897634,3.897634 0 0 1 3.8984,-3.89844 3.897634,3.897634 0 0 1 3.8965,3.89844 z m 0,283.57421 a 3.897634,3.897634 0 0 1 -3.8965,3.89649 3.897634,3.897634 0 0 1 -3.8984,-3.89649 3.897634,3.897634 0 0 1 3.8984,-3.89843 3.897634,3.897634 0 0 1 3.8965,3.89843 z m -0.5801,-389.74414 a 3.897634,3.897634 0 0 1 -3.8964,3.89844 3.897634,3.897634 0 0 1 -3.8985,-3.89844 3.897634,3.897634 0 0 1 3.8985,-3.89648 3.897634,3.897634 0 0 1 3.8964,3.89648 z m 0,283.57422 a 3.897634,3.897634 0 0 1 -3.8964,3.89844 3.897634,3.897634 0 0 1 -3.8985,-3.89844 3.897634,3.897634 0 0 1 3.8985,-3.89844 3.897634,3.897634 0 0 1 3.8964,3.89844 z M 1434.852,538.42479 c 0,11.7414 -9.5184,21.25968 -21.2598,21.25976 -11.7414,-2e-5 -21.2597,-9.51832 -21.2597,-21.25976 0,-11.7422 9.5175,-21.2617 21.2597,-21.26172 11.7422,8e-5 21.2608,9.51955 21.2598,21.26172 z m 0,283.46289 c 0,11.7414 -9.5184,21.25968 -21.2598,21.25976 -11.7414,-2e-5 -21.2597,-9.51832 -21.2597,-21.25976 0,-11.74144 9.5183,-21.25975 21.2597,-21.25977 11.7414,8e-5 21.2598,9.51837 21.2598,21.25977 z M 1357.27,537.66893 a 3.897634,3.897634 0 0 1 -3.8965,3.89648 3.897634,3.897634 0 0 1 -3.8984,-3.89648 3.897634,3.897634 0 0 1 3.8984,-3.89844 3.897634,3.897634 0 0 1 3.8965,3.89844 z m 0,283.57422 a 3.897634,3.897634 0 0 1 -3.8965,3.89648 3.897634,3.897634 0 0 1 -3.8984,-3.89648 3.897634,3.897634 0 0 1 3.8984,-3.89844 3.897634,3.897634 0 0 1 3.8965,3.89844 z M 1245.2856,540.19627 c -5e-4,4.89236 -3.967,8.85799 -8.8594,8.85742 -4.8917,-4.2e-4 -8.8569,-3.96576 -8.8574,-8.85742 -6e-4,-4.89242 3.965,-8.85895 8.8574,-8.85937 4.8931,-5.7e-4 8.86,3.96625 8.8594,8.85937 z m -121.9102,-2.12109 a 3.897634,3.897634 0 0 1 -3.8984,3.89648 3.897634,3.897634 0 0 1 -3.8965,-3.89648 3.897634,3.897634 0 0 1 3.8965,-3.89844 3.897634,3.897634 0 0 1 3.8984,3.89844 z m 0,283.57422 a 3.897634,3.897634 0 0 1 -3.8984,3.89648 3.897634,3.897634 0 0 1 -3.8965,-3.89648 3.897634,3.897634 0 0 1 3.8965,-3.89844 3.897634,3.897634 0 0 1 3.8984,3.89844 z m -42.8535,-283.22461 c 0,11.74144 -9.5183,21.25974 -21.2597,21.25976 -11.7414,-2e-5 -21.2598,-9.51832 -21.2598,-21.25976 0,-11.7422 9.5176,-21.2617 21.2598,-21.26172 11.7422,2e-5 21.2607,9.51952 21.2597,21.26172 z m 0,283.46289 c 0,11.74144 -9.5183,21.25974 -21.2597,21.25976 -11.7414,-2e-5 -21.2598,-9.51832 -21.2598,-21.25976 0,-11.74144 9.5184,-21.25975 21.2598,-21.25977 11.7414,2e-5 21.2597,9.51833 21.2597,21.25977 z m -47.9101,-337.11524 a 3.897634,3.897634 0 0 1 -3.8985,3.89844 3.897634,3.897634 0 0 1 -3.8965,-3.89844 3.897634,3.897634 0 0 1 3.8965,-3.89648 3.897634,3.897634 0 0 1 3.8985,3.89648 z m 0,283.57422 a 3.897634,3.897634 0 0 1 -3.8985,3.89844 3.897634,3.897634 0 0 1 -3.8965,-3.89844 3.897634,3.897634 0 0 1 3.8965,-3.89844 3.897634,3.897634 0 0 1 3.8985,3.89844 z m -0.5801,-177.4043 a 3.897634,3.897634 0 0 1 -3.8984,3.89649 3.897634,3.897634 0 0 1 -3.8965,-3.89649 3.897634,3.897634 0 0 1 3.8965,-3.89843 3.897634,3.897634 0 0 1 3.8984,3.89843 z m 0,283.57422 a 3.897634,3.897634 0 0 1 -3.8984,3.89649 3.897634,3.897634 0 0 1 -3.8965,-3.89649 3.897634,3.897634 0 0 1 3.8965,-3.89843 3.897634,3.897634 0 0 1 3.8984,3.89843 z m -110.959,-318.73046 0,248.74023 c 0,0.98149 -0.79,1.77148 -1.7715,1.77148 l -82.2051,0 c -0.9815,0 -1.7714,-0.78999 -1.7714,-1.77148 l 0,-248.74023 c 0,-0.98151 0.7899,-1.77149 1.7714,-1.77149 l 82.2051,0 c 0.9815,0 1.7715,0.78997 1.7715,1.77149 z m -17.7266,-61.51954 c 8e-4,5.96899 -4.8377,10.80833 -10.8066,10.8086 -5.9698,8.4e-4 -10.8095,-4.83883 -10.8086,-10.8086 2e-4,-5.96901 4.8395,-10.80748 10.8086,-10.80664 5.9682,2.7e-4 10.8063,4.83841 10.8066,10.80664 z m -12.3925,398.48828 c -7e-4,6.8483 -5.5521,12.39975 -12.4004,12.4004 -6.849,4e-4 -12.4017,-5.55137 -12.4024,-12.4004 -4e-4,-6.84978 5.5526,-12.40274 12.4024,-12.40234 6.849,6.5e-4 12.4008,5.55332 12.4004,12.40234 z M 853.7504,493.76854 c -4e-4,3.91329 -3.1726,7.08554 -7.0859,7.08593 -3.9141,7.2e-4 -7.0875,-3.17186 -7.0879,-7.08593 4e-4,-3.91406 3.1738,-7.08665 7.0879,-7.08594 3.9133,4e-4 7.0855,3.17266 7.0859,7.08594 z"
       style="fill:none;fill-rule:evenodd;stroke:#000000;stroke-width:0.70866144;stroke-linecap:butt;stroke-linejoin:miter;stroke-miterlimit:4;stroke-dasharray:none;stroke-opacity:1" />
    <g
       style="fill:none;stroke-width:0.70866144;stroke-miterlimit:4;stroke-dasharray:none"
       transform="matrix(0,1,-1,0,2817.2101,343.68277)"
       id="g4403">
      <path
         style="fill:none;fill-rule:evenodd;stroke:#000000;stroke-width:0.70866144;stroke-linecap:butt;stroke-linejoin:miter;stroke-miterlimit:4;stroke-dasharray:none;stroke-opacity:1"
         d="m 35.133805,1831.8897 93.533795,0"
         id="path4170" />
      <path
         style="fill:none;fill-rule:evenodd;stroke:#000000;stroke-width:0.70866144;stroke-linecap:butt;stroke-linejoin:miter;stroke-miterlimit:4;stroke-dasharray:none;stroke-opacity:1"
         d="m 238.98421,1831.8897 93.3059,0"
         id="path4170-1" />
      <path
         style="fill:none;fill-rule:evenodd;stroke:#000000;stroke-width:0.70866144;stroke-linecap:butt;stroke-linejoin:miter;stroke-miterlimit:4;stroke-dasharray:none;stroke-opacity:1"
         d="m 340.79547,1831.8897 93.3059,0"
         id="path4170-6" />
      <path
         style="fill:none;fill-rule:evenodd;stroke:#000000;stroke-width:0.70866144;stroke-linecap:butt;stroke-linejoin:miter;stroke-miterlimit:4;stroke-dasharray:none;stroke-opacity:1"
         d="m 442.60675,1831.8897 93.3059,0"
         id="path4170-3" />
      <path
         style="fill:none;fill-rule:evenodd;stroke:#000000;stroke-width:0.70866144;stroke-linecap:butt;stroke-linejoin:miter;stroke-miterlimit:4;stroke-dasharray:none;stroke-opacity:1"
         d="m 544.418,1831.8897 93.72027,0"
         id="path4170-7" />
      <path
         style="fill:none;fill-rule:evenodd;stroke:#000000;stroke-width:0.70866144;stroke-linecap:butt;stroke-linejoin:miter;stroke-miterlimit:4;stroke-dasharray:none;stroke-opacity:1"
         d="m 137.17296,1831.8898 93.3059,0"
         id="path4170-1-1" />
      <path
         style="fill:none;fill-rule:evenodd;stroke:#000000;stroke-width:0.70866144;stroke-linecap:butt;stroke-linejoin:miter;stroke-miterlimit:4;stroke-dasharray:none;stroke-opacity:1"
         d="m 34.970348,1838.9764 46.946412,0"
         id="path4170-9" />
      <path
         style="fill:none;fill-rule:evenodd;stroke:#000000;stroke-width:0.70866144;stroke-linecap:butt;stroke-linejoin:miter;stroke-miterlimit:4;stroke-dasharray:none;stroke-opacity:1"
         d="m 192.23337,1838.9764 93.3059,0"
         id="path4170-1-3" />
      <path
         style="fill:none;fill-rule:evenodd;stroke:#000000;stroke-width:0.70866144;stroke-linecap:butt;stroke-linejoin:miter;stroke-miterlimit:4;stroke-dasharray:none;stroke-opacity:1"
         d="m 294.04463,1838.9764 93.30589,0"
         id="path4170-6-4" />
      <path
         style="fill:none;fill-rule:evenodd;stroke:#000000;stroke-width:0.70866144;stroke-linecap:butt;stroke-linejoin:miter;stroke-miterlimit:4;stroke-dasharray:none;stroke-opacity:1"
         d="m 395.8559,1838.9764 93.3059,0"
         id="path4170-3-27" />
      <path
         style="fill:none;fill-rule:evenodd;stroke:#000000;stroke-width:0.70866144;stroke-linecap:butt;stroke-linejoin:miter;stroke-miterlimit:4;stroke-dasharray:none;stroke-opacity:1"
         d="m 497.66715,1838.9764 93.3059,0"
         id="path4170-7-5" />
      <path
         style="fill:none;fill-rule:evenodd;stroke:#000000;stroke-width:0.70866144;stroke-linecap:butt;stroke-linejoin:miter;stroke-miterlimit:4;stroke-dasharray:none;stroke-opacity:1"
         d="m 90.42212,1838.9765 93.3059,0"
         id="path4170-1-1-5" />
      <path
         style="fill:none;fill-rule:evenodd;stroke:#000000;stroke-width:0.70866144;stroke-linecap:butt;stroke-linejoin:miter;stroke-miterlimit:4;stroke-dasharray:none;stroke-opacity:1"
         d="m 599.47522,1838.9764 38.69648,0"
         id="path4170-7-5-1" />
      <path
         id="path4325"
         d="m 35.297262,1846.0629 93.533798,0"
         style="fill:none;fill-rule:evenodd;stroke:#000000;stroke-width:0.70866144;stroke-linecap:butt;stroke-linejoin:miter;stroke-miterlimit:4;stroke-dasharray:none;stroke-opacity:1" />
      <path
         id="path4327"
         d="m 239.14767,1846.0629 93.3059,0"
         style="fill:none;fill-rule:evenodd;stroke:#000000;stroke-width:0.70866144;stroke-linecap:butt;stroke-linejoin:miter;stroke-miterlimit:4;stroke-dasharray:none;stroke-opacity:1" />
      <path
         id="path4329"
         d="m 340.95893,1846.0629 93.3059,0"
         style="fill:none;fill-rule:evenodd;stroke:#000000;stroke-width:0.70866144;stroke-linecap:butt;stroke-linejoin:miter;stroke-miterlimit:4;stroke-dasharray:none;stroke-opacity:1" />
      <path
         id="path4331"
         d="m 442.77021,1846.0629 93.3059,0"
         style="fill:none;fill-rule:evenodd;stroke:#000000;stroke-width:0.70866144;stroke-linecap:butt;stroke-linejoin:miter;stroke-miterlimit:4;stroke-dasharray:none;stroke-opacity:1" />
      <path
         id="path4333"
         d="m 544.58146,1846.0629 93.72027,0"
         style="fill:none;fill-rule:evenodd;stroke:#000000;stroke-width:0.70866144;stroke-linecap:butt;stroke-linejoin:miter;stroke-miterlimit:4;stroke-dasharray:none;stroke-opacity:1" />
      <path
         id="path4335"
         d="m 137.33642,1846.063 93.3059,0"
         style="fill:none;fill-rule:evenodd;stroke:#000000;stroke-width:0.70866144;stroke-linecap:butt;stroke-linejoin:miter;stroke-miterlimit:4;stroke-dasharray:none;stroke-opacity:1" />
      <path
         id="path4337"
         d="m 35.133805,1853.1496 46.946412,0"
         style="fill:none;fill-rule:evenodd;stroke:#000000;stroke-width:0.70866144;stroke-linecap:butt;stroke-linejoin:miter;stroke-miterlimit:4;stroke-dasharray:none;stroke-opacity:1" />
      <path
         id="path4339"
         d="m 192.39683,1853.1496 93.3059,0"
         style="fill:none;fill-rule:evenodd;stroke:#000000;stroke-width:0.70866144;stroke-linecap:butt;stroke-linejoin:miter;stroke-miterlimit:4;stroke-dasharray:none;stroke-opacity:1" />
      <path
         id="path4341"
         d="m 294.20809,1853.1496 93.30589,0"
         style="fill:none;fill-rule:evenodd;stroke:#000000;stroke-width:0.70866144;stroke-linecap:butt;stroke-linejoin:miter;stroke-miterlimit:4;stroke-dasharray:none;stroke-opacity:1" />
      <path
         id="path4343"
         d="m 396.01936,1853.1496 93.3059,0"
         style="fill:none;fill-rule:evenodd;stroke:#000000;stroke-width:0.70866144;stroke-linecap:butt;stroke-linejoin:miter;stroke-miterlimit:4;stroke-dasharray:none;stroke-opacity:1" />
      <path
         id="path4345"
         d="m 497.83061,1853.1496 93.3059,0"
         style="fill:none;fill-rule:evenodd;stroke:#000000;stroke-width:0.70866144;stroke-linecap:butt;stroke-linejoin:miter;stroke-miterlimit:4;stroke-dasharray:none;stroke-opacity:1" />
      <path
         id="path4347"
         d="m 90.585577,1853.1497 93.305903,0"
         style="fill:none;fill-rule:evenodd;stroke:#000000;stroke-width:0.70866144;stroke-linecap:butt;stroke-linejoin:miter;stroke-miterlimit:4;stroke-dasharray:none;stroke-opacity:1" />
      <path
         id="path4349"
         d="m 599.63868,1853.1496 38.69648,0"
         style="fill:none;fill-rule:evenodd;stroke:#000000;stroke-width:0.70866144;stroke-linecap:butt;stroke-linejoin:miter;stroke-miterlimit:4;stroke-dasharray:none;stroke-opacity:1" />
      <path
         id="path4351"
         d="m 35.133805,1860.2362 93.533795,0"
         style="fill:none;fill-rule:evenodd;stroke:#000000;stroke-width:0.70866144;stroke-linecap:butt;stroke-linejoin:miter;stroke-miterlimit:4;stroke-dasharray:none;stroke-opacity:1" />
      <path
         id="path4353"
         d="m 238.98421,1860.2362 93.3059,0"
         style="fill:none;fill-rule:evenodd;stroke:#000000;stroke-width:0.70866144;stroke-linecap:butt;stroke-linejoin:miter;stroke-miterlimit:4;stroke-dasharray:none;stroke-opacity:1" />
      <path
         id="path4355"
         d="m 340.79547,1860.2362 93.3059,0"
         style="fill:none;fill-rule:evenodd;stroke:#000000;stroke-width:0.70866144;stroke-linecap:butt;stroke-linejoin:miter;stroke-miterlimit:4;stroke-dasharray:none;stroke-opacity:1" />
      <path
         id="path4357"
         d="m 442.60675,1860.2362 93.3059,0"
         style="fill:none;fill-rule:evenodd;stroke:#000000;stroke-width:0.70866144;stroke-linecap:butt;stroke-linejoin:miter;stroke-miterlimit:4;stroke-dasharray:none;stroke-opacity:1" />
      <path
         id="path4359"
         d="m 544.418,1860.2362 93.72027,0"
         style="fill:none;fill-rule:evenodd;stroke:#000000;stroke-width:0.70866144;stroke-linecap:butt;stroke-linejoin:miter;stroke-miterlimit:4;stroke-dasharray:none;stroke-opacity:1" />
      <path
         id="path4361"
         d="m 137.17296,1860.2363 93.3059,0"
         style="fill:none;fill-rule:evenodd;stroke:#000000;stroke-width:0.70866144;stroke-linecap:butt;stroke-linejoin:miter;stroke-miterlimit:4;stroke-dasharray:none;stroke-opacity:1" />
      <path
         id="path4363"
         d="m 34.970348,1867.3229 46.946412,0"
         style="fill:none;fill-rule:evenodd;stroke:#000000;stroke-width:0.70866144;stroke-linecap:butt;stroke-linejoin:miter;stroke-miterlimit:4;stroke-dasharray:none;stroke-opacity:1" />
      <path
         id="path4365"
         d="m 192.23337,1867.3229 93.3059,0"
         style="fill:none;fill-rule:evenodd;stroke:#000000;stroke-width:0.70866144;stroke-linecap:butt;stroke-linejoin:miter;stroke-miterlimit:4;stroke-dasharray:none;stroke-opacity:1" />
      <path
         id="path4367"
         d="m 294.04463,1867.3229 93.30589,0"
         style="fill:none;fill-rule:evenodd;stroke:#000000;stroke-width:0.70866144;stroke-linecap:butt;stroke-linejoin:miter;stroke-miterlimit:4;stroke-dasharray:none;stroke-opacity:1" />
      <path
         id="path4369"
         d="m 395.8559,1867.3229 93.3059,0"
         style="fill:none;fill-rule:evenodd;stroke:#000000;stroke-width:0.70866144;stroke-linecap:butt;stroke-linejoin:miter;stroke-miterlimit:4;stroke-dasharray:none;stroke-opacity:1" />
      <path
         id="path4371"
         d="m 497.66715,1867.3229 93.3059,0"
         style="fill:none;fill-rule:evenodd;stroke:#000000;stroke-width:0.70866144;stroke-linecap:butt;stroke-linejoin:miter;stroke-miterlimit:4;stroke-dasharray:none;stroke-opacity:1" />
      <path
         id="path4373"
         d="m 90.42212,1867.323 93.3059,0"
         style="fill:none;fill-rule:evenodd;stroke:#000000;stroke-width:0.70866144;stroke-linecap:butt;stroke-linejoin:miter;stroke-miterlimit:4;stroke-dasharray:none;stroke-opacity:1" />
      <path
         id="path4375"
         d="m 599.47522,1867.3229 38.69648,0"
         style="fill:none;fill-rule:evenodd;stroke:#000000;stroke-width:0.70866144;stroke-linecap:butt;stroke-linejoin:miter;stroke-miterlimit:4;stroke-dasharray:none;stroke-opacity:1" />
      <path
         style="fill:none;fill-rule:evenodd;stroke:#000000;stroke-width:0.70866144;stroke-linecap:butt;stroke-linejoin:miter;stroke-miterlimit:4;stroke-dasharray:none;stroke-opacity:1"
         d="m 35.297262,1874.4094 93.533798,0"
         id="path4377" />
      <path
         style="fill:none;fill-rule:evenodd;stroke:#000000;stroke-width:0.70866144;stroke-linecap:butt;stroke-linejoin:miter;stroke-miterlimit:4;stroke-dasharray:none;stroke-opacity:1"
         d="m 239.14767,1874.4094 93.3059,0"
         id="path4379" />
      <path
         style="fill:none;fill-rule:evenodd;stroke:#000000;stroke-width:0.70866144;stroke-linecap:butt;stroke-linejoin:miter;stroke-miterlimit:4;stroke-dasharray:none;stroke-opacity:1"
         d="m 340.95893,1874.4094 93.3059,0"
         id="path4381" />
      <path
         style="fill:none;fill-rule:evenodd;stroke:#000000;stroke-width:0.70866144;stroke-linecap:butt;stroke-linejoin:miter;stroke-miterlimit:4;stroke-dasharray:none;stroke-opacity:1"
         d="m 442.77021,1874.4094 93.3059,0"
         id="path4383" />
      <path
         style="fill:none;fill-rule:evenodd;stroke:#000000;stroke-width:0.70866144;stroke-linecap:butt;stroke-linejoin:miter;stroke-miterlimit:4;stroke-dasharray:none;stroke-opacity:1"
         d="m 544.58146,1874.4094 93.72027,0"
         id="path4385" />
      <path
         style="fill:none;fill-rule:evenodd;stroke:#000000;stroke-width:0.70866144;stroke-linecap:butt;stroke-linejoin:miter;stroke-miterlimit:4;stroke-dasharray:none;stroke-opacity:1"
         d="m 137.33642,1874.4095 93.3059,0"
         id="path4387" />
      <path
         style="fill:none;fill-rule:evenodd;stroke:#000000;stroke-width:0.70866144;stroke-linecap:butt;stroke-linejoin:miter;stroke-miterlimit:4;stroke-dasharray:none;stroke-opacity:1"
         d="m 35.133805,1881.4961 46.946412,0"
         id="path4389" />
      <path
         style="fill:none;fill-rule:evenodd;stroke:#000000;stroke-width:0.70866144;stroke-linecap:butt;stroke-linejoin:miter;stroke-miterlimit:4;stroke-dasharray:none;stroke-opacity:1"
         d="m 192.39683,1881.4961 93.3059,0"
         id="path4391" />
      <path
         style="fill:none;fill-rule:evenodd;stroke:#000000;stroke-width:0.70866144;stroke-linecap:butt;stroke-linejoin:miter;stroke-miterlimit:4;stroke-dasharray:none;stroke-opacity:1"
         d="m 294.20809,1881.4961 93.30589,0"
         id="path4393" />
      <path
         style="fill:none;fill-rule:evenodd;stroke:#000000;stroke-width:0.70866144;stroke-linecap:butt;stroke-linejoin:miter;stroke-miterlimit:4;stroke-dasharray:none;stroke-opacity:1"
         d="m 396.01936,1881.4961 93.3059,0"
         id="path4395" />
      <path
         style="fill:none;fill-rule:evenodd;stroke:#000000;stroke-width:0.70866144;stroke-linecap:butt;stroke-linejoin:miter;stroke-miterlimit:4;stroke-dasharray:none;stroke-opacity:1"
         d="m 497.83061,1881.4961 93.3059,0"
         id="path4397" />
      <path
         style="fill:none;fill-rule:evenodd;stroke:#000000;stroke-width:0.70866144;stroke-linecap:butt;stroke-linejoin:miter;stroke-miterlimit:4;stroke-dasharray:none;stroke-opacity:1"
         d="m 90.585577,1881.4962 93.305903,0"
         id="path4399" />
      <path
         style="fill:none;fill-rule:evenodd;stroke:#000000;stroke-width:0.70866144;stroke-linecap:butt;stroke-linejoin:miter;stroke-miterlimit:4;stroke-dasharray:none;stroke-opacity:1"
         d="m 599.63868,1881.4961 38.69648,0"
         id="path4401" />
    </g>
    <g
       style="fill:none;stroke-width:0.70866144;stroke-miterlimit:4;stroke-dasharray:none"
       transform="matrix(0,1,-1,0,1407.0473,1238.3858)"
       id="g5171">
      <rect
         style="fill:none;stroke:#000000;stroke-width:0.70866144;stroke-linejoin:bevel;stroke-miterlimit:4;stroke-dasharray:none;stroke-opacity:1"
         id="rect4682"
         width="141.73228"
         height="141.73228"
         x="-690.94489"
         y="-577.55902"
         ry="1.77165" />
      <rect
         style="fill:none;stroke:#000000;stroke-width:0.70866144;stroke-linejoin:bevel;stroke-miterlimit:4;stroke-dasharray:none;stroke-opacity:1"
         id="rect4682-7"
         width="141.73228"
         height="141.73228"
         x="-531.49603"
         y="-577.55902"
         ry="1.77165" />
      <rect
         style="fill:none;stroke:#000000;stroke-width:0.70866144;stroke-linejoin:bevel;stroke-miterlimit:4;stroke-dasharray:none;stroke-opacity:1"
         id="rect4682-2"
         width="141.73228"
         height="141.73228"
         x="-372.04724"
         y="-577.55902"
         ry="1.77165" />
      <rect
         style="fill:none;stroke:#000000;stroke-width:0.70866144;stroke-linejoin:bevel;stroke-miterlimit:4;stroke-dasharray:none;stroke-opacity:1"
         id="rect4682-1"
         width="141.73228"
         height="141.73228"
         x="-850.39368"
         y="-577.55908"
         ry="1.77165" />
    </g>
    <flowRoot
       transform="matrix(0,1,-1,0,2792.6913,553.13035)"
       style="font-style:normal;font-variant:normal;font-weight:normal;font-stretch:normal;font-size:20px;line-height:125%;font-family:'.Helvetica Neue Desk UI';-inkscape-font-specification:'.Helvetica Neue Desk UI';letter-spacing:0px;word-spacing:0px;fill:none;fill-opacity:1;stroke:#00fe00;stroke-width:1.0629921;stroke-linecap:butt;stroke-linejoin:miter;stroke-miterlimit:4;stroke-dasharray:none;stroke-opacity:1"
       id="flowRoot5242"
       xml:space="preserve"><flowRegion
         id="flowRegion5244"><rect
           style="font-style:normal;font-variant:normal;font-weight:normal;font-stretch:normal;font-size:20px;font-family:'.Helvetica Neue Desk UI';-inkscape-font-specification:'.Helvetica Neue Desk UI';fill:none;stroke:#00fe00;stroke-width:1.0629921;stroke-miterlimit:4;stroke-dasharray:none;stroke-opacity:1"
           y="1888.5826"
           x="-162.99213"
           height="88.58268"
           width="173.62204"
           id="rect5246" /></flowRegion><flowPara
         style="font-size:20px;fill:none;stroke:#00fe00;stroke-width:1.0629921;stroke-miterlimit:4;stroke-dasharray:none;stroke-opacity:1"
         id="flowPara5248">HEATER</flowPara></flowRoot>    <flowRoot
       transform="matrix(0,1,-1,0,2814.3537,645.98919)"
       style="font-style:normal;font-variant:normal;font-weight:normal;font-stretch:normal;font-size:40px;line-height:125%;font-family:'.Helvetica Neue Desk UI';-inkscape-font-specification:'.Helvetica Neue Desk UI';letter-spacing:0px;word-spacing:0px;fill:none;fill-opacity:1;stroke:#00fe00;stroke-width:1.0629921;stroke-linecap:butt;stroke-linejoin:miter;stroke-miterlimit:4;stroke-dasharray:none;stroke-opacity:1"
       id="flowRoot5242-9"
       xml:space="preserve"><flowRegion
         id="flowRegion5244-2"><rect
           style="font-style:normal;font-variant:normal;font-weight:normal;font-stretch:normal;font-family:'.Helvetica Neue Desk UI';-inkscape-font-specification:'.Helvetica Neue Desk UI';fill:none;stroke:#00fe00;stroke-width:1.0629921;stroke-miterlimit:4;stroke-dasharray:none;stroke-opacity:1"
           y="1888.5826"
           x="-162.99213"
           height="88.58268"
           width="173.62204"
           id="rect5246-0" /></flowRegion><flowPara
         style="font-size:15px;fill:none;stroke:#00fe00;stroke-width:1.0629921;stroke-miterlimit:4;stroke-dasharray:none;stroke-opacity:1"
         id="flowPara5248-2">ON</flowPara></flowRoot>    <flowRoot
       transform="matrix(0,1,-1,0,2764.7474,642.42505)"
       style="font-style:normal;font-variant:normal;font-weight:normal;font-stretch:normal;font-size:40px;line-height:125%;font-family:'.Helvetica Neue Desk UI';-inkscape-font-specification:'.Helvetica Neue Desk UI';letter-spacing:0px;word-spacing:0px;fill:none;fill-opacity:1;stroke:#00fe00;stroke-width:1.0629921;stroke-linecap:butt;stroke-linejoin:miter;stroke-miterlimit:4;stroke-dasharray:none;stroke-opacity:1"
       id="flowRoot5242-8"
       xml:space="preserve"><flowRegion
         id="flowRegion5244-8"><rect
           style="font-style:normal;font-variant:normal;font-weight:normal;font-stretch:normal;font-family:'.Helvetica Neue Desk UI';-inkscape-font-specification:'.Helvetica Neue Desk UI';fill:none;stroke:#00fe00;stroke-width:1.0629921;stroke-miterlimit:4;stroke-dasharray:none;stroke-opacity:1"
           y="1888.5826"
           x="-162.99213"
           height="88.58268"
           width="173.62204"
           id="rect5246-00" /></flowRegion><flowPara
         style="font-size:15px;fill:none;stroke:#00fe00;stroke-width:1.0629921;stroke-miterlimit:4;stroke-dasharray:none;stroke-opacity:1"
         id="flowPara5248-8">OFF</flowPara></flowRoot>    <flowRoot
       transform="matrix(0,1,-1,0,2724.8048,571.22489)"
       style="font-style:normal;font-variant:normal;font-weight:normal;font-stretch:normal;font-size:15px;line-height:125%;font-family:'.Helvetica Neue Desk UI';-inkscape-font-specification:'.Helvetica Neue Desk UI';letter-spacing:0px;word-spacing:0px;fill:none;fill-opacity:1;stroke:#00fe00;stroke-width:1.0629921;stroke-linecap:butt;stroke-linejoin:miter;stroke-miterlimit:4;stroke-dasharray:none;stroke-opacity:1"
       id="flowRoot5242-2"
       xml:space="preserve"><flowRegion
         id="flowRegion5244-9"><rect
           style="font-style:normal;font-variant:normal;font-weight:normal;font-stretch:normal;font-size:15px;font-family:'.Helvetica Neue Desk UI';-inkscape-font-specification:'.Helvetica Neue Desk UI';fill:none;stroke:#00fe00;stroke-width:1.0629921;stroke-miterlimit:4;stroke-dasharray:none;stroke-opacity:1"
           y="1888.5826"
           x="-162.99213"
           height="88.58268"
           width="173.62204"
           id="rect5246-8" /></flowRegion><flowPara
         id="flowPara5298"
         style="font-size:15px;text-align:center;text-anchor:middle;fill:none;stroke:#00fe00;stroke-width:1.0629921;stroke-miterlimit:4;stroke-dasharray:none;stroke-opacity:1">START</flowPara><flowPara
         id="flowPara5302"
         style="font-size:15px;text-align:center;text-anchor:middle;fill:none;stroke:#00fe00;stroke-width:1.0629921;stroke-miterlimit:4;stroke-dasharray:none;stroke-opacity:1">REFLOW</flowPara></flowRoot>    <circle
       r="0"
       cy="-283.46463"
       cx="946.06299"
       id="path5304"
       style="fill:#ff0000;stroke:#00fe00;stroke-width:0;stroke-linejoin:bevel;stroke-miterlimit:4;stroke-dasharray:none;stroke-opacity:1" />
  </g>
</svg>
